PathFileType	4	(x/y/z)	TRC_MarkerData\Passive\Passive_Pref0002.trc
DataRate	CameraRate	NumFrames	NumMarkers	Units	OrigDataRate	OrigDataStartFrame	OrigNumFrames
240	240	8	50	mm	240	38	303
Frame#	Time	R_AC			L_AC			HEAD			STERN			C7			L_IC			R_IC			L_ASIS			R_ASIS			L_GT			R_GT			L_PSIS			R_PSIS			SACRAL			L_LAT_KNEE			L_MED_KNEE			R_LAT_KNEE			R_MED_KNEE			L_LAT_ANK			L_MED_ANK			R_LAT_ANK			R_MED_ANK			L_THIGH_PROX_POST			L_THIGH_PROX_ANT			L_THIGH_DIST_ANT			L_THIGH_DIST_POST			R_THIGH_PROX_POST			R_THIGH_PROX_ANT			R_THIGH_DIST_ANT			R_THIGH_DIST_POST			L_SHANK_PROX_POST			L_SHANK_PROX_ANT			L_SHANK_DIST_ANT			L_SHANK_DIST_POST			R_SHANK_PROX_POST			R_SHANK_PROX_ANT			R_SHANK_DIST_ANT			R_SHANK_DIST_POST			L_HEEL_LAT			L_HEEL_SUP			L_HEEL_MED			R_HEEL_LAT			R_HEEL_SUP			R_HEEL_MED			L_1ST_MET			L_5TH_MET			L_TOE			R_1ST_MET			R_5TH_MET			R_TOE			
		X1	Y1	Z1	X2	Y2	Z2	X3	Y3	Z3	X4	Y4	Z4	X5	Y5	Z5	X6	Y6	Z6	X7	Y7	Z7	X8	Y8	Z8	X9	Y9	Z9	X10	Y10	Z10	X11	Y11	Z11	X12	Y12	Z12	X13	Y13	Z13	X14	Y14	Z14	X15	Y15	Z15	X16	Y16	Z16	X17	Y17	Z17	X18	Y18	Z18	X19	Y19	Z19	X20	Y20	Z20	X21	Y21	Z21	X22	Y22	Z22	X23	Y23	Z23	X24	Y24	Z24	X25	Y25	Z25	X26	Y26	Z26	X27	Y27	Z27	X28	Y28	Z28	X29	Y29	Z29	X30	Y30	Z30	X31	Y31	Z31	X32	Y32	Z32	X33	Y33	Z33	X34	Y34	Z34	X35	Y35	Z35	X36	Y36	Z36	X37	Y37	Z37	X38	Y38	Z38	X39	Y39	Z39	X40	Y40	Z40	X41	Y41	Z41	X42	Y42	Z42	X43	Y43	Z43	X44	Y44	Z44	X45	Y45	Z45	X46	Y46	Z46	X47	Y47	Z47	X48	Y48	Z48	X49	Y49	Z49	X50	Y50	Z50	
 
38	0.15468	-719.13	1505.2	460.46	-738.4	1518.2	67.12	-635.66	1815.7	279.21	-628.66	1474.1	263.11	-774.57	1556.8	267.81	-738.98	1065.3	116.92	-733.19	1090.7	453.01	-664.74	1012.1	154.68	-673.95	998.05	425.43	-744.38	932.37	97.99	-776.9	936.34	469.25	-876.9	1034.2	233.05	-870.27	1039.4	341.14	-889.49	1013.8	288.85	-612.77	552.59	155.08	-608.4	565.52	291.42	-861.6	527.28	453.1	-826.39	507.08	324.38	-568.21	110.55	178.66	-575.44	113.14	261.37	-1218.3	236.4	391.53	-1172.2	231.39	297.27	-729.99	776.46	121.37	-665.78	786.67	116	-647.14	715.12	130.1	-711.13	705.63	136.71	-828.85	769.64	464.47	-762.78	758.7	471.63	-780.7	686.28	465.73	-847.21	697.05	455.36	-596.38	501.71	164.4	-559.27	525.91	179.13	-548.5	476.93	187.18	-590	448	170.88	-1019	472.34	434.3	-969.46	427.81	456.61	-1018.6	373.9	443.66	-1069.1	415.64	421.91	-618.03	33.392	178.92	-632.87	59.437	212.58	-623.14	29.79	245.43	-1287.7	275.97	353.24	-1260.8	294.66	323.59	-1270.6	271.46	288.36	-405.97	69.273	289.53	-411.59	60.73	183.03	-355.05	89.214	269.73	-1176.5	67.266	296	-1225.6	81.129	398.18	-1157	33.579	347.77
39	0.15886	-712.89	1506.4	460.06	-732.25	1519.1	66.751	-629.54	1816.6	278.63	-622.61	1475	262.72	-768.5	1557.8	267.4	-733.51	1066.4	116.73	-727.29	1091.7	452.81	-659.08	1013.1	154.24	-668.03	999	425	-739.08	933.57	97.726	-770.38	936.9	468.95	-871.27	1035.5	233.1	-864.51	1040.3	341.29	-883.74	1014.8	288.95	-609.14	552.92	154.26	-604.57	566	290.55	-850.44	526.76	453.66	-814.86	506.41	324.75	-567.63	110.58	178.52	-574.76	113.25	261.03	-1209.5	239.99	392.21	-1163.1	233.76	298.12	-725.25	777.57	120.95	-660.95	787.48	115.42	-642.65	715.82	129.43	-706.68	706.66	136.12	-820.39	769.17	464.65	-754.18	758.99	471.64	-771.3	686.36	465.96	-837.97	696.36	455.73	-593.09	501.92	163.63	-555.78	525.91	178.25	-545.35	476.85	186.38	-587.09	448.17	170.2	-1007.6	473.36	434.81	-958.54	428.35	457.22	-1008.2	374.95	444.36	-1058.3	417.16	422.43	-617.9	33.553	178.9	-632.64	59.644	212.56	-623	30.003	245.44	-1278.2	280.64	353.48	-1250.6	298.72	323.94	-1260.9	275.63	288.75	-405.52	68.496	289.22	-411.32	59.811	182.75	-354.51	88.097	269.34	-1170.2	69.295	297.88	-1219.7	84.666	399.44	-1151.8	34.533	349.88
40	0.16304	-706.72	1507.5	459.69	-726.12	1520.1	66.409	-623.42	1817.6	278.06	-616.61	1475.9	262.36	-762.47	1558.8	267.01	-728.03	1067.5	116.53	-721.48	1092.6	452.62	-653.45	1014.2	153.83	-662.17	999.98	424.59	-733.77	934.76	97.471	-763.91	937.49	468.67	-865.68	1036.7	233.12	-858.78	1041.2	341.4	-878.03	1015.8	289.02	-605.63	553.22	153.48	-600.87	566.45	289.71	-839.22	526.33	454.17	-803.3	505.84	325.06	-567.07	110.62	178.38	-574.12	113.36	260.7	-1200.5	243.55	392.84	-1153.8	236.09	298.93	-720.56	778.66	120.56	-656.17	788.29	114.87	-638.21	716.5	128.8	-702.28	707.68	135.53	-811.95	768.76	464.79	-745.6	759.35	471.66	-761.91	686.52	466.19	-828.72	695.74	456.06	-589.91	502.12	162.89	-552.41	525.9	177.42	-542.31	476.77	185.63	-584.27	448.34	169.54	-996.13	474.41	435.24	-947.53	428.95	457.77	-997.77	376.05	445.02	-1047.3	418.7	422.88	-617.77	33.709	178.88	-632.41	59.843	212.55	-622.86	30.209	245.44	-1268.5	285.05	353.63	-1240.3	302.55	324.18	-1251.1	279.49	289.08	-405.11	67.769	288.93	-411.06	58.948	182.48	-354	87.045	268.98	-1163.3	71.346	299.87	-1213.2	88.232	400.83	-1146	35.727	352.13
41	0.16722	-700.63	1508.7	459.34	-720.03	1521.1	66.091	-617.29	1818.6	277.51	-610.65	1476.8	262.03	-756.48	1559.9	266.65	-722.53	1068.5	116.33	-715.75	1093.6	452.44	-647.83	1015.3	153.44	-656.36	1001	424.2	-728.48	935.94	97.226	-757.5	938.12	468.39	-860.14	1038	233.12	-853.1	1042.1	341.48	-872.34	1016.8	289.05	-602.23	553.52	152.74	-597.3	566.88	288.91	-827.96	525.99	454.63	-791.69	505.4	325.33	-566.52	110.66	178.25	-573.51	113.45	260.36	-1191.2	247.07	393.42	-1144.4	238.37	299.7	-715.92	779.75	120.2	-651.42	789.08	114.37	-633.83	717.17	128.21	-697.94	708.7	134.97	-803.52	768.42	464.91	-737.05	759.79	471.68	-752.53	686.76	466.42	-819.47	695.19	456.35	-586.82	502.32	162.19	-549.15	525.88	176.63	-539.38	476.68	184.91	-581.54	448.5	168.91	-984.56	475.5	435.59	-936.42	429.62	458.28	-987.17	377.18	445.63	-1036.3	420.25	423.28	-617.64	33.861	178.87	-632.2	60.035	212.54	-622.72	30.407	245.45	-1258.8	289.19	353.71	-1230	306.13	324.33	-1241.2	283.04	289.34	-404.71	67.089	288.66	-410.82	58.14	182.23	-353.52	86.055	268.64	-1155.9	73.41	301.96	-1206	91.801	402.35	-1139.5	37.15	354.52
42	0.1714	-694.61	1509.9	459.03	-713.96	1522.1	65.799	-611.16	1819.5	276.97	-604.73	1477.8	261.74	-750.52	1561	266.32	-717.01	1069.6	116.12	-710.11	1094.6	452.29	-642.23	1016.3	153.08	-650.6	1002.1	423.84	-723.18	937.11	96.992	-751.15	938.79	468.13	-854.63	1039.2	233.1	-847.45	1043	341.52	-866.68	1017.8	289.06	-598.94	553.8	152.04	-593.85	567.29	288.14	-816.66	525.74	455.05	-780.06	505.07	325.54	-565.99	110.71	178.14	-572.94	113.54	260.02	-1181.7	250.52	393.95	-1134.7	240.6	300.43	-711.33	780.82	119.86	-646.72	789.86	113.91	-629.5	717.83	127.66	-693.65	709.71	134.43	-795.1	768.15	465	-728.53	760.3	471.7	-743.17	687.09	466.64	-810.23	694.73	456.6	-583.84	502.51	161.52	-546.01	525.85	175.88	-536.55	476.6	184.23	-578.9	448.66	168.32	-972.93	476.62	435.86	-925.24	430.36	458.74	-976.47	378.35	446.18	-1025.2	421.81	423.6	-617.52	34.008	178.86	-632	60.221	212.53	-622.6	30.599	245.46	-1248.9	293.03	353.72	-1219.6	309.45	324.38	-1231.3	286.25	289.56	-404.35	66.454	288.42	-410.59	57.385	182	-353.07	85.124	268.33	-1147.9	75.473	304.13	-1198.3	95.345	403.99	-1132.3	38.784	357.03
43	0.17558	-688.67	1511	458.74	-707.93	1523.1	65.53	-605.03	1820.5	276.45	-598.86	1478.7	261.48	-744.61	1562.1	266	-711.46	1070.7	115.91	-704.54	1095.6	452.15	-636.65	1017.4	152.74	-644.89	1003.2	423.49	-717.89	938.27	96.769	-744.86	939.49	467.89	-849.15	1040.5	233.06	-841.84	1043.9	341.52	-861.05	1018.9	289.03	-595.75	554.07	151.38	-590.52	567.67	287.42	-805.33	525.61	455.43	-768.41	504.88	325.72	-565.47	110.76	178.04	-572.4	113.63	259.68	-1172.1	253.89	394.43	-1125	242.78	301.11	-706.8	781.88	119.57	-642.06	790.63	113.49	-625.22	718.47	127.16	-689.41	710.72	133.91	-786.71	767.95	465.06	-720.05	760.89	471.74	-733.84	687.5	466.86	-800.99	694.35	456.81	-580.94	502.69	160.89	-542.97	525.82	175.19	-533.81	476.51	183.6	-576.34	448.82	167.76	-961.25	477.76	436.05	-913.98	431.16	459.16	-965.66	379.56	446.7	-1013.9	423.38	423.88	-617.41	34.152	178.85	-631.81	60.402	212.52	-622.47	30.786	245.48	-1238.9	296.56	353.7	-1209.3	312.51	324.35	-1221.2	289.13	289.74	-404	65.861	288.19	-410.38	56.68	181.79	-352.65	84.247	268.05	-1139.3	77.525	306.38	-1189.9	98.84	405.73	-1124.3	40.607	359.62
44	0.17976	-682.81	1512.1	458.48	-701.92	1524.1	65.285	-598.89	1821.5	275.95	-593.03	1479.7	261.26	-738.74	1563.2	265.71	-705.89	1071.8	115.69	-699.04	1096.6	452.02	-631.08	1018.4	152.43	-639.22	1004.3	423.16	-712.6	939.42	96.559	-738.61	940.23	467.66	-843.7	1041.7	233	-836.26	1044.8	341.5	-855.44	1019.9	288.98	-592.65	554.34	150.76	-587.29	568.03	286.74	-793.99	525.57	455.77	-756.74	504.8	325.85	-564.96	110.81	177.95	-571.9	113.7	259.35	-1162.2	257.16	394.86	-1115	244.9	301.75	-702.31	782.93	119.3	-637.45	791.38	113.11	-621	719.1	126.69	-685.23	711.71	133.43	-778.34	767.83	465.1	-711.6	761.56	471.79	-724.53	688.01	467.08	-791.76	694.06	456.99	-578.14	502.87	160.31	-540.03	525.79	174.55	-531.16	476.43	183.01	-573.85	448.98	167.23	-949.51	478.94	436.17	-902.66	432.03	459.53	-954.76	380.79	447.17	-1002.6	424.95	424.09	-617.3	34.293	178.85	-631.63	60.579	212.51	-622.36	30.967	245.49	-1228.9	299.79	353.63	-1199	315.3	324.26	-1211.2	291.68	289.89	-403.68	65.306	287.99	-410.18	56.024	181.6	-352.26	83.421	267.8	-1130.3	79.552	308.67	-1181	102.26	407.57	-1115.7	42.59	362.28
45	0.18394	-677.04	1513.3	458.24	-695.96	1525.1	65.063	-592.75	1822.4	275.46	-587.25	1480.6	261.07	-732.91	1564.3	265.43	-700.31	1072.9	115.48	-693.62	1097.7	451.9	-625.54	1019.4	152.15	-633.6	1005.5	422.85	-707.32	940.56	96.362	-732.41	941	467.46	-838.26	1043	232.93	-830.71	1045.6	341.45	-849.84	1020.9	288.9	-589.64	554.6	150.19	-584.17	568.38	286.11	-782.63	525.65	456.08	-745.07	504.86	325.94	-564.48	110.87	177.87	-571.43	113.77	259.02	-1152.1	260.31	395.24	-1104.9	246.95	302.34	-697.88	783.97	119.06	-632.89	792.1	112.76	-616.84	719.7	126.27	-681.11	712.69	132.98	-770	767.79	465.12	-703.18	762.3	471.84	-715.24	688.6	467.3	-782.55	693.85	457.13	-575.41	503.05	159.76	-537.18	525.75	173.95	-528.59	476.34	182.47	-571.44	449.15	166.75	-937.75	480.14	436.22	-891.28	432.96	459.86	-943.77	382.06	447.59	-991.28	426.51	424.26	-617.19	34.431	178.85	-631.46	60.753	212.5	-622.25	31.143	245.51	-1218.8	302.7	353.54	-1188.7	317.82	324.12	-1201	293.89	290.02	-403.38	64.787	287.81	-409.98	55.412	181.43	-351.89	82.644	267.56	-1120.6	81.542	310.99	-1171.4	105.58	409.49	-1106.4	44.704	364.98
